<svg width="181" height="168" viewBox="0 0 181 168" fill="none" xmlns="http://www.w3.org/2000/svg">
<g id="Capa_1" clip-path="url(#clip0_587_535)">
<path id="Vector" d="M90.7984 0.0319468C106.975 0.0319468 123.152 -5.16451e-05 139.329 0.0319468C162.875 0.0799445 180.381 17.5511 180.452 41.126C180.516 60.1891 180.516 79.2522 180.452 98.3153C180.373 121.754 163.018 139.161 139.68 139.273C132.916 139.305 126.144 139.449 119.397 139.209C115.935 139.081 113.747 140.369 111.758 143.097C106.514 150.297 101.047 157.344 95.6364 164.424C91.984 169.208 88.8967 169.176 85.2204 164.328C79.7538 157.12 74.2474 149.945 68.9241 142.633C67.0859 140.105 64.9614 139.225 61.874 139.177C52.2139 139.017 42.4823 140.257 32.9018 138.441C14.1785 134.922 0.68305 118.554 0.587563 99.3392C0.48412 79.6122 0.468205 59.8771 0.587563 40.15C0.722836 17.8391 18.3958 0.191939 40.676 0.0559457C57.3861 -0.0480494 74.0883 0.0319468 90.7984 0.0319468ZM90.7666 10.3515C74.4623 10.3515 58.158 10.3195 41.8616 10.3595C23.5521 10.3995 10.8762 23.1028 10.8285 41.494C10.7807 60.2851 10.7807 79.0682 10.8285 97.8593C10.8762 116.282 23.4327 128.866 41.8457 128.986C48.8719 129.034 55.8981 129.05 62.9164 128.986C68.6296 128.93 73.1414 131.018 76.5391 135.753C80.4222 141.145 84.5998 146.321 88.4988 151.713C89.9788 153.761 90.8541 154.097 92.4694 151.809C95.9229 146.929 99.8617 142.385 103.172 137.409C107.262 131.274 112.673 128.602 119.985 128.946C126.598 129.258 133.234 129.074 139.863 128.994C157.52 128.77 170.108 116.114 170.18 98.3873C170.259 79.3322 170.251 60.2771 170.18 41.222C170.108 23.1108 157.368 10.4315 139.258 10.3835C123.089 10.3435 106.92 10.3755 90.7507 10.3755L90.7666 10.3515Z" fill="#D9DADC"/>
<path id="Vector_2" d="M55.3092 59.0932C61.1817 59.1252 65.8844 63.917 65.8207 69.7887C65.7491 75.6604 60.9589 80.3482 55.0944 80.2842C49.222 80.2202 44.4795 75.4044 44.5511 69.5727C44.6227 63.725 49.4209 59.0532 55.3172 59.0932H55.3092Z" fill="#D9DADC"/>
<path id="Vector_3" d="M125.611 80.2842C119.739 80.1642 115.092 75.3324 115.219 69.4607C115.338 63.589 120.137 59.0052 126.065 59.0932C131.889 59.1812 136.656 64.1249 136.497 69.9086C136.33 75.7884 131.492 80.3962 125.619 80.2842H125.611Z" fill="#D9DADC"/>
<path id="Vector_4" d="M101.039 69.4927C101.119 75.4764 96.5913 80.1962 90.703 80.2842C84.751 80.3722 80.0881 75.8284 80.0005 69.8687C79.913 63.8769 84.4088 59.1812 90.3369 59.0932C96.2969 58.9972 100.968 63.533 101.047 69.4927H101.039Z" fill="#D9DADC"/>
</g>
<defs>
<clipPath id="clip0_587_535">
<rect width="180" height="168" fill="white" transform="translate(0.5)"/>
</clipPath>
</defs>
</svg>
